<?xml version="1.0" standalone="no"?>
<!DOCTYPE svg PUBLIC "-//W3C//DTD SVG 20010904//EN"
 "http://www.w3.org/TR/2001/REC-SVG-20010904/DTD/svg10.dtd">
<svg version="1.0" xmlns="http://www.w3.org/2000/svg"
 width="16.000000pt" height="16.000000pt" viewBox="0 0 16.000000 16.000000"
 preserveAspectRatio="xMidYMid meet">
<metadata>
Created by potrace 1.11, written by Peter Selinger 2001-2013
</metadata>
<g transform="translate(0.000000,16.000000) scale(0.006154,-0.006154)"
fill="#000000" stroke="none">
<path d="M736 2578 c-9 -12 -16 -30 -16 -38 0 -21 38 -62 50 -55 11 7 2 35
-11 35 -17 0 -9 39 9 49 29 15 85 -19 96 -58 18 -62 -31 -114 -107 -113 -23 1
-76 12 -118 26 -139 45 -240 44 -284 -4 -27 -30 -8 -46 22 -18 22 20 34 23
106 22 60 -1 103 -8 160 -28 88 -29 132 -32 182 -12 90 38 91 173 1 206 -45
16 -73 12 -90 -12z"/>
<path d="M1731 2587 c-37 -19 -63 -60 -63 -101 0 -103 99 -140 247 -92 85 28
187 43 227 33 13 -4 35 -15 47 -27 32 -27 48 -14 20 16 -49 53 -143 55 -287 7
-121 -40 -199 -28 -223 35 -6 14 -8 36 -4 49 10 42 66 78 103 65 17 -5 15 -42
-4 -63 -23 -25 1 -34 26 -9 57 57 -13 126 -89 87z"/>
<path d="M414 2396 c-58 -25 -88 -91 -85 -186 1 -47 16 -105 52 -205 24 -66
29 -159 11 -177 -18 -18 -28 0 -13 23 15 25 6 37 -17 22 -10 -6 -17 -24 -18
-43 0 -25 -6 -36 -27 -46 -65 -34 -62 -113 5 -137 9 -3 24 0 34 7 16 12 14 14
-19 20 -36 7 -41 14 -38 46 3 24 41 50 71 50 36 0 70 -41 70 -84 0 -73 -81
-141 -202 -172 -101 -25 -154 -62 -184 -131 -14 -31 -33 -63 -42 -70 -16 -12
-16 -14 0 -26 9 -7 28 -38 41 -69 31 -70 75 -102 187 -133 127 -36 200 -100
200 -174 0 -39 -39 -81 -75 -81 -35 0 -75 41 -68 69 3 12 8 21 12 22 27 3 45
9 54 18 12 12 0 15 -38 11 -69 -7 -74 -99 -8 -134 21 -10 27 -21 27 -46 1 -19
8 -37 18 -43 25 -16 34 0 14 22 -12 14 -14 21 -6 26 39 24 45 -85 11 -180 -58
-160 -66 -242 -32 -319 40 -92 141 -112 195 -40 37 51 13 134 -39 134 -28 0
-72 -45 -54 -55 7 -5 16 -1 21 9 11 19 57 22 59 4 1 -7 3 -23 4 -36 1 -12 -8
-33 -21 -47 -49 -53 -132 -15 -153 70 -15 61 -7 119 35 241 40 120 46 202 15
233 -20 20 -20 20 -1 26 25 8 60 65 60 97 0 37 -40 103 -84 138 -23 18 -78 42
-136 60 -54 17 -110 40 -125 52 -15 12 -39 48 -54 81 l-27 60 28 57 c35 75 61
94 177 130 60 18 113 42 139 62 54 41 87 106 78 152 -8 41 -41 86 -64 86 -13
0 -12 4 6 20 35 33 30 110 -15 239 -55 159 -48 268 19 315 23 17 55 20 83 10
17 -7 42 -52 39 -71 -1 -7 -2 -20 -3 -28 -1 -20 -41 -19 -56 2 -7 9 -17 13
-24 8 -18 -10 26 -55 54 -55 72 0 75 129 4 165 -34 18 -55 18 -95 1z"/>
<path d="M2048 2393 c-66 -41 -62 -163 6 -163 25 0 73 44 58 54 -5 3 -15 -1
-22 -9 -24 -29 -68 -12 -64 25 1 8 2 21 3 28 2 23 41 52 70 52 100 0 139 -153
79 -305 -57 -143 -63 -245 -15 -276 5 -4 1 -10 -9 -13 -33 -11 -59 -57 -58
-103 2 -85 80 -154 225 -197 105 -31 132 -52 169 -127 l28 -58 -25 -53 c-42
-88 -65 -105 -198 -143 -107 -30 -184 -97 -200 -172 -8 -41 18 -98 54 -118 14
-8 21 -14 15 -15 -21 0 -37 -58 -31 -112 3 -29 15 -80 27 -113 50 -138 57
-183 40 -255 -26 -108 -143 -139 -168 -45 -5 17 -6 38 -4 48 5 22 48 23 60 1
5 -10 14 -14 21 -9 18 10 -26 55 -54 55 -75 0 -71 -138 5 -170 68 -28 145 25
167 116 15 63 7 128 -33 242 -38 111 -48 197 -24 212 22 14 33 0 15 -20 -12
-14 -13 -20 -4 -26 19 -11 51 34 39 56 -7 14 -2 22 28 41 40 26 54 62 39 97
-12 27 -65 44 -86 28 -11 -8 -6 -13 22 -19 47 -11 57 -40 26 -73 -30 -32 -73
-32 -104 2 -29 31 -31 62 -9 110 23 47 82 87 167 113 147 45 171 62 208 146
12 28 29 55 38 62 14 10 14 13 -2 30 -9 11 -30 44 -45 74 -33 65 -84 99 -190
127 -113 30 -177 83 -189 157 -13 78 74 127 126 71 29 -31 21 -62 -19 -71 -33
-7 -46 -21 -27 -27 24 -9 74 12 85 36 14 31 -12 86 -51 104 -21 10 -25 17 -18
29 11 21 3 50 -16 57 -25 10 -36 -5 -18 -24 12 -13 13 -20 5 -25 -18 -11 -31
9 -34 54 -2 27 10 79 36 154 63 182 53 297 -32 355 -39 26 -75 28 -112 5z"/>
<path d="M855 1864 c-36 -37 -10 -68 57 -70 l53 -1 0 -491 1 -492 -26 -1 c-14
-1 -35 0 -46 0 -24 2 -54 -23 -54 -44 0 -7 7 -21 16 -29 12 -13 41 -16 145
-16 141 0 169 7 169 45 0 31 -30 47 -80 42 l-40 -4 0 196 0 196 157 0 c189 0
217 5 308 49 129 64 195 154 203 280 9 156 -89 282 -263 338 -16 6 -155 12
-307 14 -239 3 -280 1 -293 -12z m573 -84 c85 -20 182 -103 199 -169 8 -33 9
-98 0 -135 -15 -66 -115 -153 -210 -181 -36 -11 -97 -15 -209 -15 l-158 0 0
254 c0 160 4 256 10 258 25 8 325 -1 368 -12z"/>
<path d="M680 216 c-183 -55 -259 -59 -305 -16 -26 24 -42 22 -32 -4 22 -57
156 -68 289 -22 94 32 165 34 201 6 30 -24 42 -66 28 -102 -12 -32 -68 -60
-93 -47 -23 12 -23 45 0 58 13 7 14 13 6 21 -15 15 -54 -25 -54 -55 0 -28 30
-55 59 -55 36 0 87 28 102 56 27 51 7 128 -41 154 -33 18 -112 21 -160 6z"/>
<path d="M1741 217 c-76 -27 -99 -123 -44 -179 37 -37 96 -48 123 -23 26 23
25 60 0 85 -25 25 -49 16 -26 -9 9 -10 16 -27 16 -39 0 -18 -6 -22 -29 -22
-43 0 -60 9 -77 42 -20 38 -10 82 23 108 35 28 104 26 197 -4 87 -29 172 -41
216 -31 41 9 96 55 78 66 -8 5 -21 0 -35 -13 -38 -35 -124 -36 -230 -3 -105
32 -166 39 -212 22z"/>
</g>
</svg>
