<?xml version="1.0" encoding="UTF-8" standalone="no"?>
<svg
   xmlns:dc="http://purl.org/dc/elements/1.1/"
   xmlns:cc="http://creativecommons.org/ns#"
   xmlns:rdf="http://www.w3.org/1999/02/22-rdf-syntax-ns#"
   xmlns:svg="http://www.w3.org/2000/svg"
   xmlns="http://www.w3.org/2000/svg"
   xml:space="preserve"
   enable-background="new 0 0 1400 980"
   viewBox="0 0 609.55823 228.8073"
   height="228.8073"
   width="609.55823"
   y="0px"
   x="0px"
   id="Layer_1"
   version="1.1"><metadata
     id="metadata237"><rdf:RDF><cc:Work
         rdf:about=""><dc:format>image/svg+xml</dc:format><dc:type
           rdf:resource="http://purl.org/dc/dcmitype/StillImage" /><dc:title></dc:title></cc:Work></rdf:RDF></metadata><defs
     id="defs235" /><g
     transform="translate(-259.31697,-76.299382)"
     id="g3"><g
       style="fill:#666666;fill-opacity:1"
       transform="translate(-331.93548,-47.419354)"
       id="g151"><g
         style="fill:#666666;fill-opacity:1"
         transform="translate(0,1.1290348)"
         id="g153"><path
           style="fill:#666666;fill-opacity:1"
           id="path155"
           d="m 632.13,334.521 c -0.91,0 -1.893,-0.131 -2.947,-0.419 -3.107,-0.852 -5.601,-3.089 -7.212,-6.467 -2.978,-6.246 -2.511,-15.407 1.217,-23.908 4.281,-9.761 4.561,-17.144 3.009,-19.872 -0.341,-0.6 -0.745,-0.933 -1.203,-0.99 -0.976,-0.105 -1.686,0.222 -1.851,0.894 -0.169,0.699 0.288,1.682 1.691,2.201 0.583,0.213 0.88,0.861 0.666,1.443 -0.215,0.584 -0.863,0.885 -1.443,0.665 -2.696,-0.993 -3.496,-3.204 -3.099,-4.84 0.369,-1.511 1.846,-2.901 4.314,-2.593 0.825,0.103 1.995,0.551 2.88,2.11 2.296,4.036 1.155,12.626 -2.904,21.887 -3.473,7.918 -3.95,16.362 -1.246,22.037 1.321,2.769 3.318,4.589 5.776,5.264 5.32,1.46 7.464,-2.099 8.139,-3.696 1.2,-2.839 0.696,-5.883 -0.537,-6.61 -0.79,-0.461 -1.525,-0.591 -2.238,-0.397 -1.574,0.426 -2.607,2.244 -2.619,2.262 -0.301,0.542 -0.985,0.736 -1.527,0.437 -0.541,-0.301 -0.739,-0.981 -0.44,-1.524 0.059,-0.107 1.485,-2.655 3.981,-3.34 1.322,-0.367 2.661,-0.151 3.982,0.626 2.407,1.415 3.066,5.642 1.469,9.423 -1.188,2.812 -3.809,5.407 -7.858,5.407 z" /><path
           style="fill:#666666;fill-opacity:1"
           id="path157"
           d="m 660.211,351.397 c -2.074,0 -3.809,-0.777 -4.659,-2.22 -0.777,-1.324 -0.988,-2.666 -0.625,-3.988 0.685,-2.495 3.231,-3.92 3.339,-3.981 0.539,-0.299 1.222,-0.101 1.524,0.441 0.3,0.542 0.104,1.225 -0.436,1.528 -0.019,0.009 -1.834,1.043 -2.262,2.618 -0.195,0.72 -0.065,1.454 0.398,2.242 0.687,1.166 3.002,1.445 5.273,0.639 2.881,-1.025 5.708,-3.762 5.005,-8.373 -0.369,-2.411 -1.55,-4.216 -3.513,-5.365 -3.318,-1.941 -8.819,-1.93 -14.015,0.024 -14.903,5.609 -24.69,5.306 -29.084,-0.911 -0.359,-0.507 -0.238,-1.21 0.269,-1.568 0.506,-0.362 1.21,-0.239 1.567,0.268 4.645,6.57 16.951,3.685 26.456,0.107 4.41,-1.66 11.231,-2.622 15.944,0.138 2.54,1.487 4.129,3.896 4.598,6.968 0.913,5.971 -2.917,9.566 -6.474,10.831 -1.139,0.407 -2.265,0.602 -3.305,0.602 z" /><path
           style="fill:#666666;fill-opacity:1"
           id="path159"
           d="m 623.528,280.889 c -0.808,0 -1.633,-0.127 -2.464,-0.389 -3.683,-1.155 -6.493,-4.701 -6.262,-7.908 0.1,-1.399 0.661,-2.547 1.669,-3.415 2.232,-1.919 5.887,-1.663 6.042,-1.643 0.618,0.048 1.08,0.586 1.032,1.206 -0.047,0.622 -0.592,1.015 -1.206,1.037 -0.807,-0.06 -3.15,0.022 -4.406,1.109 -0.542,0.468 -0.833,1.078 -0.889,1.867 -0.157,2.191 1.993,4.756 4.692,5.602 1.702,0.541 4.95,0.773 7.563,-3.627 1.261,-2.119 1.311,-4.77 0.144,-7.46 -1.769,-4.08 -6.906,-9.15 -16.021,-11.151 -14.729,-3.237 -16.647,-9.078 -18.048,-13.345 -0.735,-2.238 -1.265,-3.854 -3.42,-4.737 -0.576,-0.237 -0.85,-0.894 -0.614,-1.467 0.235,-0.575 0.893,-0.848 1.466,-0.615 3.116,1.278 3.923,3.737 4.705,6.116 1.3,3.961 2.918,8.892 16.396,11.852 8.317,1.825 15.062,6.597 17.601,12.451 1.462,3.373 1.365,6.749 -0.274,9.506 -1.932,3.247 -4.703,5.011 -7.706,5.011 z" /><path
           style="fill:#666666;fill-opacity:1"
           id="path161"
           d="m 624.593,193.399 c -2.062,0 -3.303,-1.269 -3.636,-2.64 -0.397,-1.636 0.403,-3.847 3.098,-4.84 0.582,-0.222 1.229,0.081 1.444,0.666 0.214,0.582 -0.083,1.229 -0.667,1.442 -1.403,0.519 -1.86,1.504 -1.691,2.201 0.164,0.674 0.872,1.012 1.849,0.896 0.459,-0.057 0.864,-0.391 1.206,-0.991 1.552,-2.729 1.271,-10.112 -3.011,-19.874 -3.728,-8.503 -4.193,-17.665 -1.215,-23.91 1.61,-3.377 4.103,-5.613 7.21,-6.465 5.749,-1.568 9.352,1.546 10.807,4.996 1.595,3.779 0.937,8.004 -1.469,9.417 -1.323,0.78 -2.663,0.99 -3.985,0.628 -2.494,-0.685 -3.921,-3.23 -3.98,-3.338 -0.299,-0.542 -0.101,-1.223 0.44,-1.524 0.541,-0.294 1.225,-0.103 1.527,0.435 0.011,0.02 1.043,1.836 2.616,2.262 0.72,0.191 1.452,0.063 2.241,-0.4 1.232,-0.725 1.735,-3.766 0.537,-6.605 -0.674,-1.601 -2.817,-5.163 -8.139,-3.7 -2.458,0.674 -4.456,2.495 -5.776,5.264 -2.705,5.672 -2.227,14.116 1.246,22.037 4.06,9.261 5.201,17.851 2.905,21.89 -0.886,1.559 -2.057,2.007 -2.882,2.11 -0.233,0.027 -0.458,0.043 -0.675,0.043 z" /><path
           style="fill:#666666;fill-opacity:1"
           id="path163"
           d="m 658.072,142.731 c -3.103,0 -6.223,-0.694 -8.625,-1.599 -9.506,-3.582 -21.809,-6.467 -26.456,0.105 -0.358,0.509 -1.058,0.632 -1.566,0.27 -0.508,-0.358 -0.628,-1.061 -0.27,-1.565 4.396,-6.221 14.181,-6.531 29.084,-0.914 5.2,1.957 10.702,1.963 14.018,0.02 1.961,-1.148 3.142,-2.954 3.509,-5.365 0.704,-4.611 -2.124,-7.348 -5.003,-8.373 -2.269,-0.806 -4.59,-0.527 -5.275,0.643 -0.463,0.787 -0.593,1.52 -0.397,2.24 0.426,1.574 2.243,2.606 2.262,2.615 0.54,0.303 0.735,0.986 0.436,1.528 -0.299,0.542 -0.979,0.74 -1.524,0.441 -0.107,-0.059 -2.654,-1.484 -3.34,-3.979 -0.364,-1.322 -0.153,-2.662 0.625,-3.986 1.277,-2.169 4.552,-2.835 7.967,-1.621 3.556,1.263 7.385,4.86 6.473,10.829 -0.468,3.072 -2.057,5.481 -4.594,6.968 -2.147,1.258 -4.729,1.743 -7.324,1.743 z" /><path
           style="fill:#666666;fill-opacity:1"
           id="path165"
           d="m 592.377,238.118 c -0.443,0 -0.862,-0.263 -1.04,-0.698 -0.236,-0.573 0.039,-1.229 0.614,-1.467 2.155,-0.883 2.687,-2.499 3.421,-4.737 1.401,-4.267 3.319,-10.11 18.047,-13.345 9.114,-1.999 14.252,-7.067 16.021,-11.147 1.168,-2.69 1.117,-5.341 -0.143,-7.46 -2.617,-4.4 -5.861,-4.164 -7.563,-3.63 -2.701,0.848 -4.85,3.413 -4.694,5.604 0.057,0.786 0.347,1.396 0.887,1.864 1.256,1.087 3.612,1.168 4.411,1.109 0.617,-0.035 1.158,0.419 1.206,1.037 0.047,0.619 -0.414,1.157 -1.032,1.206 -0.155,0.015 -3.816,0.276 -6.047,-1.645 -1.005,-0.865 -1.566,-2.014 -1.667,-3.41 -0.229,-3.208 2.58,-6.755 6.263,-7.91 3.921,-1.238 7.717,0.501 10.168,4.625 1.64,2.758 1.736,6.133 0.273,9.506 -2.541,5.854 -9.284,10.624 -17.602,12.447 -13.475,2.96 -15.093,7.89 -16.394,11.85 -0.781,2.38 -1.589,4.84 -4.705,6.118 -0.137,0.056 -0.281,0.083 -0.424,0.083 z" /></g><g
         style="fill:#666666;fill-opacity:1"
         transform="translate(383.87099,1.1279606)"
         id="g167"><path
           style="fill:#666666;fill-opacity:1"
           id="path169"
           d="m 776.062,334.521 c -4.049,0 -6.669,-2.595 -7.856,-5.409 -1.597,-3.781 -0.938,-8.008 1.469,-9.423 1.322,-0.777 2.659,-0.993 3.981,-0.626 2.497,0.686 3.922,3.233 3.981,3.34 0.299,0.542 0.101,1.223 -0.439,1.524 -0.54,0.299 -1.226,0.105 -1.528,-0.437 -0.011,-0.018 -1.043,-1.836 -2.618,-2.262 -0.718,-0.193 -1.449,-0.064 -2.237,0.397 -1.234,0.727 -1.737,3.771 -0.538,6.61 0.675,1.597 2.815,5.152 8.139,3.696 2.459,-0.674 4.455,-2.495 5.777,-5.264 2.703,-5.674 2.227,-14.118 -1.247,-22.037 -4.059,-9.261 -5.2,-17.851 -2.903,-21.887 0.885,-1.559 2.056,-2.007 2.881,-2.11 2.473,-0.308 3.944,1.083 4.313,2.593 0.397,1.636 -0.404,3.847 -3.099,4.84 -0.586,0.22 -1.229,-0.081 -1.445,-0.665 -0.213,-0.582 0.084,-1.23 0.668,-1.443 1.403,-0.519 1.859,-1.502 1.69,-2.201 -0.164,-0.672 -0.876,-0.999 -1.851,-0.894 -0.459,0.057 -0.863,0.391 -1.204,0.99 -1.552,2.728 -1.271,10.11 3.009,19.872 3.729,8.5 4.194,17.662 1.217,23.908 -1.609,3.377 -4.104,5.615 -7.212,6.467 -1.055,0.29 -2.036,0.421 -2.948,0.421 z" /><path
           style="fill:#666666;fill-opacity:1"
           id="path171"
           d="m 747.982,351.397 c -1.041,0 -2.168,-0.196 -3.308,-0.602 -3.558,-1.265 -7.388,-4.859 -6.474,-10.831 0.468,-3.072 2.058,-5.481 4.599,-6.968 4.715,-2.76 11.533,-1.798 15.942,-0.138 9.509,3.58 21.813,6.463 26.457,-0.107 0.358,-0.507 1.061,-0.63 1.566,-0.268 0.507,0.358 0.628,1.061 0.27,1.568 -4.395,6.217 -14.177,6.524 -29.086,0.911 -5.197,-1.954 -10.696,-1.965 -14.015,-0.024 -1.961,1.148 -3.143,2.954 -3.511,5.365 -0.705,4.611 2.123,7.348 5.004,8.373 2.273,0.806 4.588,0.525 5.272,-0.641 0.466,-0.791 0.596,-1.526 0.397,-2.249 -0.43,-1.566 -2.237,-2.598 -2.257,-2.606 -0.543,-0.301 -0.742,-0.984 -0.441,-1.529 0.299,-0.542 0.983,-0.744 1.526,-0.443 0.107,0.062 2.654,1.487 3.34,3.981 0.362,1.322 0.151,2.664 -0.626,3.985 -0.847,1.446 -2.582,2.223 -4.655,2.223 z" /><path
           style="fill:#666666;fill-opacity:1"
           id="path173"
           d="m 784.664,280.889 c -3.005,0 -5.773,-1.761 -7.704,-5.011 -1.641,-2.758 -1.737,-6.133 -0.274,-9.506 2.539,-5.854 9.282,-10.626 17.601,-12.451 13.477,-2.96 15.096,-7.89 16.396,-11.852 0.781,-2.378 1.588,-4.838 4.704,-6.116 0.573,-0.233 1.229,0.04 1.467,0.615 0.234,0.573 -0.04,1.23 -0.615,1.467 -2.154,0.883 -2.686,2.499 -3.419,4.737 -1.401,4.267 -3.32,10.108 -18.049,13.345 -9.115,2 -14.252,7.071 -16.021,11.151 -1.166,2.69 -1.116,5.341 0.145,7.46 2.613,4.401 5.859,4.168 7.563,3.627 2.699,-0.845 4.85,-3.41 4.693,-5.6 -0.058,-0.792 -0.35,-1.405 -0.894,-1.873 -1.505,-1.296 -4.372,-1.109 -4.401,-1.107 -0.614,0.092 -1.159,-0.413 -1.207,-1.032 -0.049,-0.619 0.412,-1.159 1.031,-1.208 0.156,-0.022 3.813,-0.274 6.044,1.643 1.008,0.867 1.567,2.016 1.669,3.417 0.23,3.204 -2.58,6.75 -6.263,7.905 -0.832,0.262 -1.658,0.389 -2.466,0.389 z" /><path
           style="fill:#666666;fill-opacity:1"
           id="path175"
           d="m 783.599,193.399 c -0.215,0 -0.441,-0.016 -0.677,-0.044 -0.823,-0.103 -1.993,-0.551 -2.881,-2.11 -2.295,-4.039 -1.155,-12.629 2.905,-21.89 3.474,-7.921 3.95,-16.364 1.247,-22.037 -1.321,-2.769 -3.317,-4.589 -5.777,-5.264 -5.327,-1.462 -7.464,2.1 -8.139,3.7 -1.198,2.839 -0.695,5.881 0.536,6.604 0.791,0.468 1.528,0.593 2.251,0.399 1.563,-0.43 2.596,-2.238 2.604,-2.255 0.301,-0.542 0.981,-0.749 1.528,-0.441 0.542,0.298 0.742,0.981 0.441,1.526 -0.06,0.108 -1.484,2.653 -3.979,3.338 -1.319,0.362 -2.661,0.152 -3.985,-0.628 -2.404,-1.412 -3.063,-5.637 -1.469,-9.417 1.456,-3.45 5.063,-6.559 10.806,-4.996 3.107,0.852 5.603,3.087 7.212,6.465 2.978,6.245 2.513,15.407 -1.217,23.91 -4.282,9.761 -4.561,17.144 -3.011,19.874 0.343,0.6 0.747,0.934 1.206,0.991 0.969,0.116 1.685,-0.222 1.849,-0.896 0.169,-0.696 -0.287,-1.682 -1.69,-2.201 -0.582,-0.213 -0.881,-0.861 -0.666,-1.442 0.216,-0.584 0.863,-0.887 1.443,-0.666 2.696,0.993 3.496,3.204 3.099,4.84 -0.334,1.371 -1.575,2.64 -3.636,2.64 z" /><path
           style="fill:#666666;fill-opacity:1"
           id="path177"
           d="m 750.121,142.731 c -2.596,0 -5.179,-0.485 -7.324,-1.741 -2.536,-1.487 -4.126,-3.896 -4.594,-6.968 -0.911,-5.969 2.916,-9.566 6.474,-10.829 3.413,-1.214 6.689,-0.547 7.968,1.619 0.777,1.326 0.987,2.666 0.623,3.988 -0.685,2.495 -3.232,3.92 -3.34,3.979 -0.545,0.299 -1.224,0.101 -1.524,-0.441 -0.298,-0.542 -0.103,-1.225 0.438,-1.528 0.018,-0.009 1.836,-1.041 2.262,-2.615 0.195,-0.72 0.065,-1.454 -0.397,-2.242 -0.688,-1.168 -3.004,-1.447 -5.274,-0.641 -2.882,1.025 -5.708,3.762 -5.005,8.373 0.369,2.411 1.548,4.216 3.509,5.365 3.313,1.943 8.817,1.937 14.02,-0.02 14.899,-5.613 24.687,-5.31 29.083,0.914 0.358,0.505 0.237,1.208 -0.27,1.565 -0.508,0.362 -1.208,0.239 -1.566,-0.27 -4.645,-6.57 -16.95,-3.687 -26.454,-0.105 -2.408,0.903 -5.526,1.597 -8.629,1.597 z" /><path
           style="fill:#666666;fill-opacity:1"
           id="path179"
           d="m 815.815,238.118 c -0.143,0 -0.287,-0.026 -0.426,-0.083 -3.116,-1.278 -3.924,-3.737 -4.706,-6.118 -1.3,-3.959 -2.918,-8.89 -16.395,-11.85 -8.316,-1.823 -15.061,-6.592 -17.602,-12.447 -1.462,-3.373 -1.365,-6.749 0.274,-9.506 2.451,-4.124 6.257,-5.857 10.168,-4.625 3.683,1.155 6.493,4.702 6.263,7.908 -0.099,1.399 -0.661,2.547 -1.667,3.413 -2.23,1.917 -5.894,1.66 -6.045,1.645 -0.619,-0.048 -1.081,-0.586 -1.032,-1.206 0.046,-0.617 0.551,-1.072 1.205,-1.037 0.795,0.059 3.153,-0.022 4.41,-1.109 0.54,-0.468 0.83,-1.078 0.887,-1.867 0.156,-2.189 -1.991,-4.754 -4.692,-5.602 -1.702,-0.531 -4.948,-0.771 -7.563,3.63 -1.26,2.119 -1.311,4.77 -0.143,7.46 1.768,4.08 6.906,9.148 16.02,11.147 14.729,3.234 16.648,9.078 18.049,13.345 0.733,2.238 1.265,3.854 3.422,4.737 0.575,0.237 0.85,0.894 0.612,1.467 -0.177,0.434 -0.597,0.698 -1.039,0.698 z" /></g></g><g
       id="text4411"
       style="font-style:normal;font-weight:normal;font-size:90px;line-height:125%;font-family:sans-serif;letter-spacing:0px;word-spacing:0px;fill:#666666;fill-opacity:1;stroke:none;stroke-width:1px;stroke-linecap:butt;stroke-linejoin:miter;stroke-opacity:1"><path
         id="path4290"
         style="font-style:normal;font-variant:normal;font-weight:normal;font-stretch:normal;font-size:177.5px;font-family:'Serto Kharput';-inkscape-font-specification:'Serto Kharput';letter-spacing:-10px;fill:#666666;fill-opacity:1"
         d="m 437.13074,168.21219 q 0,10.48706 -7.02027,18.20068 -6.3269,6.9336 -16.90063,10.40039 -4.76685,1.56006 -11.35376,1.90674 -4.76685,0.34668 -12.22046,0.0867 -9.96704,-0.34668 -11.70044,-0.34668 l 0,34.32129 6.15357,0 q 4.85351,0 4.85351,3.72681 0,3.64013 -4.85351,3.64013 l -19.58741,0 q -4.85351,0 -4.85351,-3.64013 0,-3.72681 4.85351,-3.72681 l 6.15357,0 0,-86.84326 -6.15357,0 q -4.85351,0 -4.85351,-3.72681 0,-3.64013 4.85351,-3.64013 l 38.65479,0.0867 q 13.52051,0 23.40088,7.88696 10.57373,8.40698 10.57373,21.66748 z m -7.28028,0 q 0,-9.7937 -8.32031,-16.29395 -7.62695,-5.98022 -17.68066,-5.98022 l -25.91431,0 0,45.2417 23.22754,0 q 10.6604,0 19.15405,-5.98023 9.53369,-6.76025 9.53369,-16.9873 z" /><path
         id="path4292"
         style="font-style:normal;font-variant:normal;font-weight:normal;font-stretch:normal;font-size:177.5px;font-family:'Serto Kharput';-inkscape-font-specification:'Serto Kharput';letter-spacing:-10px;fill:#666666;fill-opacity:1"
         d="m 526.3678,236.33475 q 0,3.64013 -4.85352,3.64013 l -12.74048,0 0,-9.44702 q -14.30053,12.04712 -30.59448,12.04712 -10.31372,0 -17.24731,-5.02685 -7.88697,-5.63355 -7.88697,-15.60059 0,-12.22046 11.78711,-18.63403 9.44702,-5.2002 22.62085,-5.2002 9.36035,0 21.3208,2.42676 l 0,-10.6604 q 0,-7.02026 -6.93359,-10.57373 -5.37354,-2.77344 -13.08716,-2.77344 -4.94018,0 -14.21387,2.68677 -9.18701,2.6001 -10.48706,2.6001 -3.03344,0 -3.03344,-3.29346 0,-1.21338 0.78003,-2.16675 1.47338,-1.7334 12.74047,-4.16015 10.48707,-2.34009 14.56055,-2.34009 10.05371,0 17.594,4.85351 8.75366,5.54688 8.75366,15.16724 l -0.0867,42.72827 6.15356,0 q 4.85352,0 4.85352,3.72681 z m -17.594,-14.56055 0,-14.47388 q -8.927,-2.60009 -20.62744,-2.60009 -10.14038,0 -18.11401,3.64013 -10.40039,4.68018 -10.40039,13.60718 0,7.10693 5.80688,10.83374 4.94019,3.20679 12.48047,3.20679 16.03394,0 30.85449,-14.21387 z" /><path
         id="path4294"
         style="font-style:normal;font-variant:normal;font-weight:normal;font-stretch:normal;font-size:177.5px;font-family:'Serto Kharput';-inkscape-font-specification:'Serto Kharput';letter-spacing:-10px;fill:#666666;fill-opacity:1"
         d="m 667.17346,174.97244 q 1.12671,1.04004 1.12671,2.6001 0,3.29346 -4.42017,3.81348 0.78003,-0.0867 -6.58691,-0.0867 l 9.88037,-6.32691 z m 1.12671,2.6001 q 0,3.29346 -4.42017,3.81348 0.78003,-0.0867 -6.58691,-0.0867 l -26.08765,58.67553 -12.30712,0 -13.43384,-31.63452 -13.2605,31.63452 -12.30713,0 -26.43433,-58.67553 q -7.36694,0 -6.58691,0.0867 -4.42017,-0.52002 -4.42017,-3.81348 0,-3.64014 4.59351,-3.64014 l 20.62744,0 q 4.59351,0 4.59351,3.64014 0,3.29346 -4.42017,3.81348 0.78003,-0.0867 -6.58691,-0.0867 l 23.22754,51.39526 3.20678,0 13.78052,-32.67456 7.97363,0 14.04053,32.67456 3.20679,0 22.70752,-51.39526 q -7.36695,0 -6.58692,0.0867 -4.42016,-0.52002 -4.42016,-3.81348 0,-3.64014 4.5935,-3.64014 l 20.71412,0 q 4.5935,0 4.5935,3.64014 z m -97.15698,-2.6001 q 1.12671,1.04004 1.12671,2.6001 0,3.29346 -4.42017,3.81348 0.78003,-0.0867 -6.58691,-0.0867 l 9.88037,-6.32691 z" /><path
         id="path4296"
         style="font-style:normal;font-variant:normal;font-weight:normal;font-stretch:normal;font-size:177.5px;font-family:'Serto Kharput';-inkscape-font-specification:'Serto Kharput';letter-spacing:-10px;fill:#666666;fill-opacity:1"
         d="m 768.54431,236.33475 q 0,3.64013 -4.85351,3.64013 l -13.43384,0 0,-10.6604 q -14.90723,13.52051 -32.24121,13.52051 -10.48706,0 -16.98731,-6.50024 -6.41357,-6.58692 -6.41357,-17.07398 l 0,-37.96142 q -7.19361,0 -6.67359,0.0867 -4.33349,-0.52002 -4.33349,-3.81348 0,-3.64014 4.85351,-3.64014 l 13.43384,0 0,45.32837 q 0,7.02027 4.42017,11.70044 4.42016,4.59351 11.35376,4.59351 17.76733,0 32.58789,-16.29395 l 0,-37.96142 q -7.19361,0 -6.67359,0.0867 -4.33349,-0.52002 -4.33349,-3.81348 0,-3.64014 4.85351,-3.64014 l 13.43384,0 0,58.76221 q 7.28027,0 6.58692,-0.0867 4.42016,0.52002 4.42016,3.72681 z" /></g></g></svg>